<svg xmlns="http://www.w3.org/2000/svg" style="display:none">
<symbol id="i-brain" viewBox="0 0 24 24"><path d="M9 4.5a3 3 0 0 0-5.2 2A3.6 3.6 0 0 0 3 12a3.6 3.6 0 0 0 .8 5.5A3 3 0 0 0 9 19.5V4.5Zm6 0a3 3 0 0 1 5.2 2A3.6 3.6 0 0 1 21 12a3.6 3.6 0 0 1-.8 5.5A3 3 0 0 1 15 19.5V4.5Z" fill="none" stroke="currentColor" stroke-width="1.8" stroke-linecap="round"/><path d="M9 8c-2 .2-3 1.4-3 3m9-3c2 .2 3 1.4 3 3M9 16c-2-.2-3-1.4-3-3m9 3c2-.2 3-1.4 3-3" fill="none" stroke="currentColor" stroke-width="1.4" stroke-linecap="round"/></symbol>
<symbol id="i-gear" viewBox="0 0 24 24"><path d="M12 8a4 4 0 1 0 0 8 4 4 0 0 0 0-8Z" fill="none" stroke="currentColor" stroke-width="1.8"/><path d="m4.9 8.2 1.4-2.4 2.2.8c.5-.3 1-.6 1.6-.7L10.5 3h3l.4 2.9c.6.2 1.1.4 1.6.7l2.2-.8 1.4 2.4-1.8 1.8c.1.6.1 1.2 0 1.8l1.8 1.8-1.4 2.4-2.2-.8c-.5.3-1 .6-1.6.7l-.4 2.9h-3l-.4-2.9c-.6-.2-1.1-.4-1.6-.7l-2.2.8-1.4-2.4 1.8-1.8a7 7 0 0 1 0-1.8L4.9 8.2Z" fill="none" stroke="currentColor" stroke-width="1.4" stroke-linejoin="round"/></symbol>
<symbol id="i-chart" viewBox="0 0 24 24"><path d="M4 20V4m0 16h16" stroke="currentColor" stroke-width="1.8" stroke-linecap="round"/><path d="M7 16l3.5-4 3 2.6L19 8" fill="none" stroke="currentColor" stroke-width="1.8" stroke-linecap="round" stroke-linejoin="round"/><path d="M19 8v4m0-4h-4" fill="none" stroke="currentColor" stroke-width="1.8" stroke-linecap="round"/></symbol>
<symbol id="i-code" viewBox="0 0 24 24"><path d="m8 8-4 4 4 4m8-8 4 4-4 4m-2-10-4 12" fill="none" stroke="currentColor" stroke-width="1.9" stroke-linecap="round" stroke-linejoin="round"/></symbol>
<symbol id="i-design" viewBox="0 0 24 24"><path d="M4 20c4-1 6.5-3.2 7.2-6.5M14 4l6 6-8 8H6v-6l8-8Z" fill="none" stroke="currentColor" stroke-width="1.7" stroke-linecap="round" stroke-linejoin="round"/><path d="m12 6 6 6" stroke="currentColor" stroke-width="1.7"/></symbol>
<symbol id="i-gift" viewBox="0 0 24 24"><path d="M4 10h16v10H4V10Zm0-4h16v4H4V6Zm8 0v14M12 6C9 2.5 6 3.5 6 6c0 2 3 2 6 0Zm0 0c3-3.5 6-2.5 6 0 0 2-3 2-6 0Z" fill="none" stroke="currentColor" stroke-width="1.6" stroke-linejoin="round"/></symbol>
<symbol id="i-search" viewBox="0 0 24 24"><path d="M10.8 18.1a7.3 7.3 0 1 1 0-14.6 7.3 7.3 0 0 1 0 14.6Zm8.2 2.1-4.2-4.2" fill="none" stroke="currentColor" stroke-width="2.2" stroke-linecap="round"/></symbol>
<symbol id="i-upload" viewBox="0 0 24 24"><path d="M12 16V4m0 0 4 4m-4-4-4 4M4 16v3a1 1 0 0 0 1 1h14a1 1 0 0 0 1-1v-3" fill="none" stroke="currentColor" stroke-width="1.8" stroke-linecap="round" stroke-linejoin="round"/></symbol>
</svg>